<?xml version="1.0" encoding="iso-8859-1"?>
<!-- Uploaded to: SVG Repo, www.svgrepo.com, Generator: SVG Repo Mixer Tools -->
<svg height="800px" width="800px" version="1.1" id="Layer_1" xmlns="http://www.w3.org/2000/svg" xmlns:xlink="http://www.w3.org/1999/xlink" 
	 viewBox="0 0 512.001 512.001" xml:space="preserve">
<circle style="fill:#D8DBBA;" cx="255.995" cy="255.996" r="255.995"/>
<path style="fill:#C6C9A3;" d="M511.955,251.76L364.534,104.338L165.793,495.636C193.855,506.206,224.251,512,256.001,512
	c141.381,0,256.001-114.618,256.001-256c0-1.416-0.027-2.834-0.054-4.241h0.008V251.76z"/>
<path style="fill:#4D4D4D;" d="M263.611,312.915L263.611,312.915c17.292,0,33.892,3.124,49.25,8.845l1.362-14.14l102.93-21.796
	c-128.413,119.995-59.811,25.183-11.243,169.38l2.253,6.684C365.625,493.374,312.997,512,256.01,512
	c-51.638,0-99.698-15.303-139.92-41.603l5.222-15.194c29.097-84.667,45.062-83.486,52.3-93.812
	c5.058-7.22-10.689-26.182-63.544-75.577L212.99,307.61l1.362,14.14c15.366-5.712,31.958-8.845,49.25-8.845L263.611,312.915z"/>
<g>
	<path style="fill:#333333;" d="M360.81,489.632c-3.442-17.5-5.803-29.442-5.803-29.442l7.502,28.661l-1.699,0.772V489.632z
		 M164.213,495.045c-0.681-0.263-1.371-0.509-2.053-0.781l8.918-34.065C171.079,460.199,168.209,474.64,164.213,495.045z"/>
	<path style="fill:#333333;" d="M355.18,314.522c0,0-56.968,76.494-66.104,86.61c-9.145,10.126-26.028,14.621-26.028,14.621
		s-16.883-4.495-26.019-14.621c-9.145-10.117-66.114-86.61-66.114-86.61l92.133,25.519L355.18,314.522z"/>
</g>
<path style="fill:#7ECC5A;" d="M244.221,370.101c-20.86-12.224-60.365-43.219-70.491-56.252
	c-10.126-13.023-10.779-34.918-12.796-62.872c-4.749-1.481-14.067-6.149-30.768-20.288c-27.562-23.349,0.635-82.642,0.635-82.642
	l27.907,26.009c0.036-7.783,0.137-12.505,0.137-12.505c-5.776-126.797,214.17-126.389,208.394,0c0,0,0.1,4.722,0.137,12.505
	l27.898-26.009c0,0,28.208,59.284,0.644,82.642c-16.701,14.149-26.019,18.808-30.777,20.288
	c-2.016,27.962-2.661,49.849-12.796,62.872c-10.135,13.032-49.631,44.027-70.5,56.252c-1.998,4.323-13.913,7.311-18.817,7.311
	c-4.905,0-16.819-2.988-18.826-7.311H244.221z"/>
<g>
	<path style="fill:#4D4D4D;" d="M324.221,291.945c0,0-15.466,14.94-39.078,17.427c-23.63,2.489-75.086-30.115-75.086-30.115
		s22.777,43.02,48.096,49.358c25.301,6.339,66.077-36.671,66.077-36.671L324.221,291.945L324.221,291.945z"/>
	<path style="fill:#4D4D4D;" d="M181.858,105.9c-5.548,7.074,9.772,67.058,1.499,74.369c-8.264,7.311-9.763,45.553-9.763,51.184
		c0,5.622-39.196-91.088-12.033-127.114c38.66-51.274,170.352-50.775,202.973,0c24.076,37.47-12.033,132.736-12.033,127.114
		c0-5.622-1.508-43.864-9.772-51.184c-8.264-7.311,13.686-61.237,3.405-74.369c-0.844-1.081-78.256,19.235-86.693,19.235
		c-8.663,0-72.035-26.3-77.593-19.235C181.849,105.9,181.858,105.9,181.858,105.9z"/>
</g>
<path style="fill:#F6F6F6;" d="M226.94,288.422c0.018,4.904,1.68,20.751,3.687,27.308c2.325,7.601,5.604,13.304,5.604,13.304
	l7.411-31.904L226.94,288.422z M312.233,300.473c-0.445,3.968-6.539,17.11-8.446,20.878l-5.222-14.83l13.677-6.039L312.233,300.473z
	"/>
<g>
	<path style="fill:#1EB33B;" d="M288.866,270.667c-15.048,6.611-18.118,23.73-23.295,23.73c-9.59,0-12.597-19.435-28.208-23.73
		c-10.072-2.77,12.696-36.698,25.546-36.725c12.887-0.027,35.672,32.449,25.946,36.725H288.866z"/>
	<path style="fill:#1EB33B;" d="M368.094,205.308l26.155-44.427c0,0,9.282,40.495-0.844,52.864
		c-10.126,12.369-31.495,26.991-31.495,26.991s5.058-8.719,3.088-17.436c-1.971-8.718-4.495-3.369-4.495-3.369L368.094,205.308z
		 M158.001,205.308l-26.146-44.427c0,0-9.291,40.495,0.844,52.864c10.126,12.369,31.495,26.991,31.495,26.991
		s-5.058-8.719-3.097-17.436c1.971-8.719,4.495-3.369,4.495-3.369L158.001,205.308z"/>
</g>
<path style="fill:#8BD966;" d="M288.866,266.799c-15.048,7.184-18.118,25.773-23.295,25.773c-9.59,0-12.597-21.114-28.208-25.773
	c-10.072-2.997,12.696-39.849,25.546-39.887c12.887-0.036,35.672,35.246,25.946,39.887H288.866z"/>
<path style="fill:#FFFFFF;" d="M224.66,196.353c12.705,0,23.004,10.299,23.004,23.004s-10.299,23.013-23.004,23.013
	c-12.705,0-23.013-10.308-23.013-23.013C201.647,206.651,211.946,196.353,224.66,196.353z"/>
<path style="fill:#4D4D4D;" d="M224.66,211.756c4.205,0,7.61,3.396,7.61,7.601c0,4.205-3.405,7.61-7.61,7.61s-7.61-3.405-7.61-7.61
	C217.05,215.152,220.455,211.756,224.66,211.756z"/>
<path style="fill:#FFFFFF;" d="M301.426,196.353c12.705,0,23.013,10.299,23.013,23.004s-10.299,23.013-23.013,23.013
	c-12.705,0-23.004-10.308-23.004-23.013C278.423,206.651,288.721,196.353,301.426,196.353z"/>
<g>
	<path style="fill:#4D4D4D;" d="M301.426,211.756c4.205,0,7.61,3.396,7.61,7.601c0,4.205-3.405,7.61-7.61,7.61
		c-4.205,0-7.61-3.405-7.61-7.61C293.816,215.152,297.221,211.756,301.426,211.756z"/>
	<path style="fill:#4D4D4D;" d="M247.082,196.807L203.8,170.87c-1.362-0.727-5.377,0.709-6.257,3.178l-7.11,19.316l11.524-12.206
		l41.285,26.273c5.122,2.57,9.763-4.949,3.842-10.616L247.082,196.807L247.082,196.807z M279.358,196.807l43.283-25.937
		c1.362-0.727,5.377,0.709,6.257,3.178l7.11,19.316l-11.515-12.206l-41.294,26.273c-5.122,2.57-9.763-4.949-3.842-10.616v-0.009
		H279.358z"/>
</g>
</svg>